<svg width="72" height="95" viewBox="0 0 72 95" fill="none" xmlns="http://www.w3.org/2000/svg">
<path d="M36 94.0004L69 27.5H3L36 94.0004Z" fill="#00B389" stroke="black" stroke-width="2" stroke-linejoin="round"/>
<path d="M71 20.7086C71 31.5934 55.33 40.4172 36 40.4172C16.67 40.4172 1 31.5934 1 20.7086C1 9.82384 16.67 1 36 1C55.33 1 71 9.82384 71 20.7086Z" fill="#00B389"/>
<path d="M71 20.7086C71 31.5934 55.33 40.4172 36 40.4172C16.67 40.4172 1 31.5934 1 20.7086M71 20.7086C71 9.82384 55.33 1 36 1C16.67 1 1 9.82384 1 20.7086M71 20.7086H1" stroke="black" stroke-width="2" stroke-linejoin="round"/>
</svg>
