<svg width="56" height="89" viewBox="0 0 56 89" fill="none" xmlns="http://www.w3.org/2000/svg">
<rect x="1" y="19" width="54" height="52" fill="#FF0084" stroke="black" stroke-width="2"/>
<path d="M55 17.5C55 21.8633 52.1675 25.9648 47.269 29.0264C42.3846 32.0791 35.5746 34 28 34C20.4254 34 13.6154 32.0791 8.73101 29.0264C3.83248 25.9648 1 21.8633 1 17.5C1 13.1367 3.83248 9.03521 8.73101 5.97363C13.6154 2.92086 20.4254 1 28 1C35.5746 1 42.3846 2.92086 47.269 5.97363C52.1675 9.03521 55 13.1367 55 17.5Z" fill="#FF76BD" stroke="black" stroke-width="2"/>
<path d="M55 71.5C55 75.8633 52.1675 79.9648 47.269 83.0264C42.3846 86.0791 35.5746 88 28 88C20.4254 88 13.6154 86.0791 8.73101 83.0264C3.83248 79.9648 1 75.8633 1 71.5C1 67.1367 3.83248 63.0352 8.73101 59.9736C13.6154 56.9209 20.4254 55 28 55C35.5746 55 42.3846 56.9209 47.269 59.9736C52.1675 63.0352 55 67.1367 55 71.5Z" fill="#FF0084" stroke="black" stroke-width="2"/>
</svg>
