<svg width="148" height="148" viewBox="0 0 148 148" fill="none" xmlns="http://www.w3.org/2000/svg">
<path d="M62 20.8571C71.0857 21.0464 74.1714 15.8857 74.3429 8C74.3429 15.8857 78.8 21.0286 86 21.0286C78.2857 21.0286 74.3429 25.6571 74.3429 32.6857C74.3429 25.4857 71.0857 21.0464 62 20.8571Z" fill="black" stroke="black" stroke-width="2.74286" stroke-linejoin="round"/>
<path d="M62 128.857C71.0857 129.046 74.1714 123.886 74.3429 116C74.3429 123.886 78.8 129.029 86 129.029C78.2857 129.029 74.3429 133.657 74.3429 140.686C74.3429 133.486 71.0857 129.046 62 128.857Z" fill="black" stroke="black" stroke-width="2.74286" stroke-linejoin="round"/>
<path d="M87.1538 117.769C91.2307 117.854 93.9231 116.923 94 113.385C94 116.923 96 117.846 99.2308 117.846C95.7693 117.846 94 119.461 94 122.615C94 119.385 91.2307 117.854 87.1538 117.769Z" stroke="black" stroke-width="2.30769" stroke-linejoin="round"/>
<path d="M44.1538 117.769C48.2307 117.854 50.9231 116.923 51 113.385C51 116.923 53 117.846 56.2308 117.846C52.7693 117.846 51 119.461 51 122.615C51 119.385 48.2307 117.854 44.1538 117.769Z" stroke="black" stroke-width="2.30769" stroke-linejoin="round"/>
<path d="M46.1538 32.7691C50.2307 32.8541 52.9231 31.923 53 28.3845C53 31.923 55 32.8461 58.2308 32.8461C54.7693 32.8461 53 34.4614 53 37.6153C53 34.3845 50.2307 32.8541 46.1538 32.7691Z" stroke="black" stroke-width="2.30769" stroke-linejoin="round"/>
<path d="M95.1538 32.7691C99.2307 32.8541 101.923 31.923 102 28.3845C102 31.923 104 32.8461 107.231 32.8461C103.769 32.8461 102 34.4614 102 37.6153C102 34.3845 99.2307 32.8541 95.1538 32.7691Z" stroke="black" stroke-width="2.30769" stroke-linejoin="round"/>
<path fill-rule="evenodd" clip-rule="evenodd" d="M16.0002 87.4807C26.7312 72.9592 48.7725 63.0001 74.2203 63.0001C99.6681 63.0001 121.709 72.9592 132.44 87.4807C129.157 65.2671 104.344 48.0001 74.2203 48.0001C44.0969 48.0001 19.2833 65.2671 16.0002 87.4807Z" fill="black"/>
<circle cx="74.5" cy="74.5" r="20.5" fill="black"/>
</svg>
